<svg width="471" height="471" viewBox="0 0 471 471" fill="none" xmlns="http://www.w3.org/2000/svg">
<path d="M471 235.5C471 105.437 365.563 0 235.5 0C105.437 0 0 105.437 0 235.5C0 365.563 105.437 471 235.5 471C365.563 471 471 365.563 471 235.5Z" fill="#FF9025"/>
<path d="M140.659 341.823L171.405 341.715L171.53 377.363L207.178 377.238L207.052 341.59L241.809 341.467L241.934 377.115L277.581 376.99L277.456 341.342L308.173 341.234C338.212 341.129 362.478 316.692 362.373 286.653C362.267 256.613 337.83 232.347 307.791 232.453L140.277 233.041L140.449 282.056" stroke="white" stroke-width="17.8339"/>
<path d="M174.098 270.348L310.823 269.867C320.673 269.833 328.685 277.789 328.72 287.639C328.754 297.488 320.798 305.5 310.949 305.535L174.223 306.015L174.162 288.767L174.098 270.348Z" stroke="white" stroke-width="17.8339"/>
<path d="M173.715 161.365L286.662 160.969C296.511 160.934 304.524 168.89 304.559 178.74C304.593 188.589 296.637 196.602 286.787 196.636L173.84 197.033L173.78 179.785L173.715 161.365Z" stroke="white" stroke-width="17.8339"/>
<path d="M158.103 232.978L285.45 232.531C314.786 232.428 338.484 208.563 338.381 179.228C338.278 149.892 314.413 126.194 285.077 126.297L272.247 126.342L272.122 90.6953L236.474 90.8203L236.599 126.467L201.843 126.589L201.718 90.9423L166.071 91.0673L166.196 126.714L139.906 126.807L140.107 184.026L140.692 350.72" stroke="white" stroke-width="17.8339"/>
</svg>
